<?xml version="1.0" standalone="no"?>
<!DOCTYPE svg PUBLIC "-//W3C//DTD SVG 20010904//EN"
 "http://www.w3.org/TR/2001/REC-SVG-20010904/DTD/svg10.dtd">
<svg version="1.0" xmlns="http://www.w3.org/2000/svg"
 width="2560.000000pt" height="2560.000000pt" viewBox="0 0 2560.000000 2560.000000"
 preserveAspectRatio="xMidYMid meet">

<g transform="translate(0.000000,2560.000000) scale(0.100000,-0.100000)"
fill="#6760C7" stroke="none">
<path d="M5740 19659 c-821 -62 -1628 -338 -2328 -795 -650 -425 -1193 -1002
-1581 -1678 -100 -173 -236 -456 -310 -646 -246 -626 -352 -1232 -338 -1920 6
-290 20 -454 62 -710 263 -1606 1340 -3012 2825 -3685 673 -306 1343 -445
2140 -445 l225 0 1124 1124 1125 1125 -715 4 c-772 4 -766 3 -1039 63 -730
160 -1381 641 -1758 1301 -362 635 -449 1407 -235 2113 124 412 363 809 674
1120 414 414 896 658 1516 767 91 16 325 18 3523 20 l3425 3 1125 1125 1125
1125 -5235 -1 c-2879 -1 -5287 -6 -5350 -10z"/>
<path d="M18031 18546 l-1125 -1125 735 -4 c785 -4 772 -3 1027 -58 216 -47
501 -155 707 -267 679 -370 1170 -1022 1340 -1779 48 -216 60 -331 59 -593 -1
-174 -5 -276 -17 -353 -77 -501 -263 -936 -564 -1317 -86 -109 -324 -347 -433
-433 -379 -300 -801 -481 -1312 -564 -92 -15 -245 -17 -1412 -20 l-1310 -4
225 228 c123 125 255 266 292 313 218 273 373 582 457 913 52 206 72 370 71
597 0 281 -34 496 -116 745 -167 509 -491 936 -940 1240 l-98 67 -4519 -4519
c-2485 -2485 -4518 -4523 -4518 -4529 0 -17 136 -212 211 -300 317 -377 749
-653 1213 -775 234 -61 337 -73 616 -74 274 0 365 10 580 62 321 78 648 239
925 456 55 43 724 704 1720 1699 l1630 1628 3070 0 c1982 0 3127 4 3230 10
1565 100 2958 902 3824 2202 440 661 705 1398 798 2220 22 194 25 788 5 978
-67 644 -222 1185 -498 1740 -239 480 -517 871 -893 1254 -272 277 -495 462
-796 661 -218 145 -341 215 -590 336 -311 151 -604 259 -921 338 -438 110
-788 151 -1279 151 l-270 0 -1124 -1124z"/>
</g>
</svg>
